<?xml version="1.0" encoding="utf-8"?>
<!-- Generator: Adobe Illustrator 16.0.0, SVG Export Plug-In . SVG Version: 6.00 Build 0)  -->
<!DOCTYPE svg PUBLIC "-//W3C//DTD SVG 1.0//EN" "http://www.w3.org/TR/2001/REC-SVG-20010904/DTD/svg10.dtd" [
	<!ENTITY ns_extend "http://ns.adobe.com/Extensibility/1.0/">
	<!ENTITY ns_ai "http://ns.adobe.com/AdobeIllustrator/10.0/">
	<!ENTITY ns_graphs "http://ns.adobe.com/Graphs/1.0/">
	<!ENTITY ns_vars "http://ns.adobe.com/Variables/1.0/">
	<!ENTITY ns_imrep "http://ns.adobe.com/ImageReplacement/1.0/">
	<!ENTITY ns_sfw "http://ns.adobe.com/SaveForWeb/1.0/">
	<!ENTITY ns_custom "http://ns.adobe.com/GenericCustomNamespace/1.0/">
	<!ENTITY ns_adobe_xpath "http://ns.adobe.com/XPath/1.0/">
]>
<svg version="1.0" xmlns:x="&ns_extend;" xmlns:i="&ns_ai;" xmlns:graph="&ns_graphs;"
	 xmlns="http://www.w3.org/2000/svg" xmlns:xlink="http://www.w3.org/1999/xlink" x="0px" y="0px" width="19px" height="19px"
	 viewBox="0 0 19 19" enable-background="new 0 0 19 19" xml:space="preserve">
<metadata>
	<sfw  xmlns="&ns_sfw;">
		<slices></slices>
		<sliceSourceBounds  height="18.326" width="34.699" y="-277" x="257.736" bottomLeftOrigin="true"></sliceSourceBounds>
		<optimizationSettings>
			<targetSettings  fileFormat="PNG24Format" targetSettingsID="0">
				<PNG24Format  transparency="true" interlaced="false" matteColor="#FFFFFF" noMatteColor="false" filtered="false">
					</PNG24Format>
			</targetSettings>
		</optimizationSettings>
	</sfw>
</metadata>
<g id="credit">
	<g>
		<g>
			<path d="M25.582,2.561V0.876h0.707h0.064c0.189,0,0.319,0.036,0.389,0.109c0.068,0.073,0.104,0.211,0.104,0.411
				c0,0.192-0.035,0.324-0.107,0.394s-0.207,0.104-0.405,0.104l-0.075,0.002h-0.485v0.664H25.582z M25.772,1.735h0.45
				c0.188,0,0.309-0.019,0.361-0.058s0.08-0.127,0.08-0.267c0-0.163-0.018-0.266-0.054-0.309c-0.036-0.044-0.12-0.065-0.255-0.065
				l-0.072-0.001h-0.511V1.735z"/>
			<path d="M27.263,0.876v1.685h-0.19V0.876H27.263z"/>
			<path d="M28.867,0.876l-0.539,0.813l0.579,0.872h-0.224L28.293,1.97l-0.062-0.092c-0.003-0.006-0.013-0.021-0.028-0.046
				l-0.029-0.047h-0.006l-0.029,0.049c-0.017,0.023-0.027,0.038-0.031,0.046l-0.063,0.094l-0.396,0.587h-0.234l0.603-0.872
				l-0.554-0.813h0.229l0.374,0.562l0.051,0.079c0.008,0.009,0.016,0.022,0.026,0.039l0.024,0.04h0.006l0.024-0.039
				c0.013-0.022,0.021-0.035,0.024-0.04l0.051-0.077l0.369-0.563H28.867z"/>
			<g>
				<path d="M30.795,1.676c-0.078-0.063-0.252-0.098-0.527-0.109c-0.291-0.015-0.361-0.042-0.379-0.054
					c-0.012-0.007-0.047-0.042-0.047-0.208c0-0.07,0.012-0.161,0.064-0.192c0.033-0.021,0.125-0.046,0.359-0.046
					c0.205,0,0.27,0.028,0.291,0.045c0.018,0.015,0.049,0.063,0.049,0.221V1.38h0.285V1.332c0-0.214-0.045-0.352-0.133-0.422
					c-0.086-0.066-0.258-0.1-0.523-0.1c-0.262,0-0.434,0.034-0.525,0.106c-0.097,0.074-0.144,0.212-0.144,0.421
					c0,0.301,0.163,0.472,0.474,0.492l0.385,0.021c0.125,0.007,0.168,0.032,0.184,0.047c0.014,0.014,0.037,0.054,0.037,0.171
					c0,0.193-0.039,0.242-0.057,0.255c-0.021,0.017-0.102,0.046-0.373,0.046c-0.242,0-0.309-0.031-0.324-0.045
					c-0.016-0.012-0.053-0.06-0.053-0.243v-0.09h-0.284l0.003,0.123c0,0.204,0.045,0.338,0.138,0.408
					c0.091,0.069,0.259,0.103,0.515,0.103c0.293,0,0.479-0.033,0.57-0.102c0.096-0.07,0.141-0.214,0.141-0.439
					C30.92,1.875,30.881,1.741,30.795,1.676z"/>
				<polygon points="30.986,2.607 32.164,2.607 32.164,2.352 31.271,2.352 31.271,1.817 32.127,1.817 32.127,1.563 31.271,1.563 
					31.271,1.083 32.164,1.083 32.164,0.828 30.986,0.828 				"/>
				<path d="M33.42,2.097c0,0.121-0.021,0.201-0.063,0.227c-0.025,0.017-0.111,0.046-0.393,0.046s-0.354-0.06-0.371-0.096
					c-0.025-0.051-0.055-0.233-0.055-0.811c0-0.247,0.045-0.317,0.07-0.338c0.029-0.021,0.129-0.059,0.469-0.059
					c0.188,0,0.246,0.029,0.268,0.046c0.018,0.017,0.049,0.067,0.049,0.228l0.002,0.098h0.285L33.68,1.345
					c0-0.207-0.043-0.345-0.129-0.422c-0.084-0.075-0.236-0.112-0.465-0.112c-0.33,0-0.541,0.037-0.646,0.113
					c-0.09,0.065-0.146,0.143-0.166,0.229c-0.018,0.08-0.027,0.264-0.027,0.562c0,0.387,0.041,0.63,0.125,0.74
					c0.086,0.114,0.275,0.17,0.574,0.17c0.334,0,0.529-0.03,0.619-0.095c0.092-0.067,0.137-0.221,0.137-0.469V1.95h-0.285
					L33.42,2.097z"/>
				<polygon points="35.047,0.828 33.668,0.828 33.668,1.1 34.217,1.1 34.217,2.607 34.504,2.607 34.504,1.1 35.047,1.1 				"/>
				<path d="M35.783,0.811c-0.289,0-0.482,0.044-0.594,0.134c-0.111,0.091-0.168,0.258-0.168,0.494L35.02,1.718
					c0,0.402,0.041,0.647,0.127,0.751c0.088,0.104,0.297,0.156,0.637,0.156c0.344,0,0.553-0.052,0.641-0.158
					c0.084-0.104,0.125-0.356,0.125-0.771c0-0.387-0.043-0.625-0.131-0.729C36.328,0.862,36.121,0.811,35.783,0.811z M35.783,1.066
					c0.273,0,0.375,0.035,0.412,0.065c0.033,0.027,0.076,0.105,0.076,0.316v0.27c0,0.456-0.039,0.559-0.059,0.581
					c-0.016,0.021-0.09,0.07-0.43,0.07s-0.414-0.049-0.43-0.07c-0.018-0.022-0.059-0.125-0.059-0.581s0.041-0.559,0.059-0.581
					C35.369,1.115,35.443,1.066,35.783,1.066z"/>
				<path d="M37.885,1.801c0.047-0.024,0.084-0.056,0.109-0.094c0.045-0.069,0.066-0.186,0.066-0.352
					c0-0.188-0.041-0.326-0.125-0.406c-0.084-0.082-0.221-0.121-0.416-0.121h-0.85v1.779h0.285V1.926h0.59
					c0.096,0,0.207,0.027,0.207,0.247v0.435h0.285V2.13C38.037,1.946,37.971,1.85,37.885,1.801z M37.785,1.402
					c0,0.106-0.021,0.178-0.063,0.212c-0.029,0.025-0.1,0.056-0.266,0.056h-0.502V1.083h0.568c0.148,0,0.197,0.033,0.215,0.053
					C37.756,1.157,37.785,1.22,37.785,1.402z"/>
			</g>
		</g>
		<g>
			<polygon fill="#FFFFFF" points="23.596,2.09 22.529,3.157 21.809,2.438 21.582,2.667 22.529,3.614 24.002,2.141 23.771,1.91 			
				"/>
			<polygon fill="#FFFFFF" points="22.529,1.125 23.01,1.605 22.625,1.995 22.258,1.629 22.028,1.857 22.032,1.86 22.033,1.859 
				22.032,1.861 22.625,2.452 23.302,1.771 23.468,1.605 22.523,0.663 21.055,2.141 21.285,2.37 21.336,2.319 21.387,2.269 
				21.412,2.243 21.463,2.193 21.514,2.142 21.513,2.141 			"/>
			<path fill="#24B1FF" d="M24.639,1.365c-0.398-1.088-1.624-1.639-2.736-1.23c-1.111,0.407-1.689,1.62-1.291,2.707
				c0.398,1.088,1.623,1.639,2.734,1.23C24.459,3.665,25.037,2.452,24.639,1.365z M21.463,2.193l-0.051,0.05l-0.025,0.025
				l-0.051,0.051L21.285,2.37l-0.23-0.229l1.469-1.478l0.944,0.942l-0.166,0.165l-0.677,0.682l-0.593-0.591l0.001-0.002L22.032,1.86
				l-0.004-0.003l0.229-0.229l0.367,0.366l0.385-0.39l-0.48-0.48l-1.017,1.016l0.001,0.001L21.463,2.193z M22.529,3.614
				l-0.947-0.947l0.227-0.229l0.721,0.72l1.066-1.067l0.176-0.18l0.23,0.23L22.529,3.614z"/>
		</g>
		<g>
			<path d="M34.301,3.744v0.187h-0.154V3.744H34.301z"/>
			<path d="M35.217,3.581h0.141l0.002,0.053c0,0.208-0.137,0.312-0.408,0.312c-0.174,0-0.289-0.033-0.346-0.099
				c-0.055-0.065-0.084-0.201-0.084-0.405c0-0.192,0.029-0.321,0.086-0.391s0.166-0.103,0.326-0.103
				c0.158,0,0.264,0.022,0.322,0.069c0.057,0.046,0.086,0.133,0.086,0.261h-0.143V3.253c0-0.075-0.018-0.125-0.055-0.15
				c-0.037-0.024-0.111-0.037-0.223-0.037c-0.105,0-0.174,0.023-0.205,0.071c-0.031,0.047-0.045,0.153-0.045,0.317
				c0,0.161,0.018,0.264,0.051,0.308c0.035,0.044,0.117,0.065,0.244,0.065c0.107,0,0.178-0.015,0.207-0.043
				C35.201,3.756,35.217,3.688,35.217,3.581z"/>
			<path d="M35.957,2.948c0.18,0,0.295,0.03,0.348,0.093s0.08,0.197,0.08,0.405s-0.027,0.343-0.08,0.405s-0.168,0.094-0.348,0.094
				s-0.295-0.031-0.348-0.094s-0.08-0.197-0.08-0.405s0.027-0.343,0.08-0.405S35.777,2.948,35.957,2.948z M35.957,3.065
				c-0.125,0-0.203,0.021-0.234,0.062c-0.029,0.041-0.045,0.147-0.045,0.319c0,0.173,0.016,0.278,0.045,0.32
				c0.031,0.04,0.109,0.061,0.234,0.061s0.205-0.021,0.234-0.061c0.029-0.042,0.045-0.147,0.045-0.32
				c0-0.172-0.016-0.278-0.045-0.319S36.082,3.065,35.957,3.065z"/>
			<path d="M36.605,2.962h0.143l-0.004,0.146l0.004,0.004c0.055-0.108,0.16-0.163,0.316-0.163c0.164,0,0.264,0.055,0.299,0.163
				h0.004c0.061-0.108,0.172-0.163,0.332-0.163c0.229,0,0.344,0.116,0.344,0.35v0.633H37.9V3.284c0-0.085-0.014-0.143-0.045-0.173
				s-0.088-0.046-0.172-0.046c-0.113,0-0.189,0.021-0.229,0.063c-0.041,0.042-0.061,0.123-0.061,0.241v0.561h-0.141V3.298
				l-0.002-0.045c0-0.125-0.072-0.188-0.215-0.188c-0.193,0-0.289,0.104-0.289,0.315v0.55h-0.143V2.962z"/>
		</g>
	</g>
</g>
<g id="bin">
	<g>
		<path d="M4.625,7.326v9.704c0,0.616,0.609,1.296,1.161,1.296h6.712c0.552,0,1.127-0.68,1.127-1.296V7.326H4.625z M7.625,15.826
			c0,0.276-0.224,0.5-0.5,0.5s-0.5-0.224-0.5-0.5v-6c0-0.276,0.224-0.5,0.5-0.5s0.5,0.224,0.5,0.5V15.826z M9.625,15.826
			c0,0.276-0.224,0.5-0.5,0.5s-0.5-0.224-0.5-0.5v-6c0-0.276,0.224-0.5,0.5-0.5s0.5,0.224,0.5,0.5V15.826z M11.625,15.826
			c0,0.276-0.224,0.5-0.5,0.5s-0.5-0.224-0.5-0.5v-6c0-0.276,0.224-0.5,0.5-0.5s0.5,0.224,0.5,0.5V15.826z"/>
		<path d="M13.924,4.326h-2.896l-0.95-1H8.18l-0.95,1H4.361c-0.552,0-1,0.448-1,1s0.448,1,1,1h9.561c0,0,0.001,0,0.002,0
			c0.553,0,1-0.448,1-1C14.924,4.773,14.477,4.326,13.924,4.326z"/>
	</g>
</g>
</svg>
